<svg width="24" height="24" viewBox="0 0 24 24" fill="none" xmlns="http://www.w3.org/2000/svg">
<path fill-rule="evenodd" clip-rule="evenodd" d="M4.62829 3.08819e-06C4.52218 0.00041719 4.42054 0.0428088 4.34558 0.117918C4.27062 0.193027 4.22842 0.29475 4.22822 0.400865V1.92741H1.80032C0.7904 1.92741 0 2.8098 0 3.85168V17.8072C0 18.849 0.7904 19.7314 1.80032 19.7314H11.1769C12.2705 21.7399 14.3998 23.1054 16.8438 23.1054C20.4016 23.1054 23.2952 20.2123 23.2952 16.654C23.2952 14.4458 22.1805 12.4941 20.4845 11.3307V3.85168C20.4845 2.8098 19.6949 1.92741 18.685 1.92741H16.2571V0.400865C16.2569 0.294616 16.2146 0.192777 16.1394 0.117646C16.0643 0.0425144 15.9625 0.000212908 15.8562 3.08819e-06C15.8034 -0.000204 15.7511 0.0100061 15.7022 0.030049C15.6533 0.050092 15.6089 0.0795741 15.5715 0.116808C15.534 0.154042 15.5043 0.198297 15.4839 0.247039C15.4636 0.295781 15.4531 0.348054 15.453 0.400865V1.92741H5.03149V0.400865C5.03139 0.348055 5.02087 0.295784 5.00055 0.247042C4.98022 0.198301 4.95048 0.154047 4.91303 0.116813C4.87558 0.0795797 4.83115 0.0500972 4.78229 0.0300534C4.73343 0.0100096 4.6811 -0.000201999 4.62829 3.08819e-06ZM1.80032 2.7307H4.22822V4.25489C4.22801 4.30764 4.2382 4.35991 4.25819 4.40872C4.27818 4.45753 4.30759 4.50192 4.34475 4.53936C4.3819 4.5768 4.42606 4.60656 4.47471 4.62694C4.52336 4.64731 4.57555 4.6579 4.62829 4.65811C4.6813 4.65832 4.73382 4.64803 4.78284 4.62784C4.83185 4.60765 4.87638 4.57795 4.91386 4.54047C4.95134 4.50299 4.98104 4.45845 5.00122 4.40944C5.02141 4.36043 5.0317 4.3079 5.03149 4.25489V2.7307H15.453V4.25489C15.4528 4.3079 15.4631 4.36043 15.4833 4.40944C15.5035 4.45846 15.5332 4.50299 15.5706 4.54047C15.6081 4.57796 15.6527 4.60765 15.7017 4.62784C15.7507 4.64803 15.8032 4.65832 15.8562 4.65811C15.909 4.65801 15.9613 4.64749 16.01 4.62716C16.0588 4.60683 16.103 4.57709 16.1403 4.53963C16.1775 4.50218 16.207 4.45775 16.227 4.4089C16.2471 4.36004 16.2573 4.3077 16.2571 4.25489V2.7307H18.685C19.2257 2.7307 19.6812 3.20591 19.6812 3.85168V6.84281H0.804062V3.85168C0.804062 3.20591 1.25962 2.7307 1.80032 2.7307ZM0.804062 7.64688H19.6812V10.8608C18.8244 10.4395 17.8615 10.2026 16.8438 10.2026C13.2861 10.2026 10.3948 13.0957 10.3948 16.654C10.3948 17.4543 10.5419 18.2205 10.809 18.9281H1.80032C1.25962 18.9281 0.804062 18.4529 0.804062 17.8072V7.64688ZM16.8438 11.0059C17.9468 11.0059 18.9748 11.321 19.8436 11.8657C19.8476 11.8683 19.8517 11.8708 19.8557 11.8733C21.4404 12.8726 22.4915 14.638 22.4915 16.6538C22.4915 19.778 19.967 22.3018 16.8434 22.3018C14.6318 22.3018 12.7221 21.0362 11.7955 19.1883C11.7868 19.1666 11.7763 19.1456 11.764 19.1256C11.4014 18.3794 11.1984 17.5409 11.1984 16.6538C11.1984 13.5295 13.7203 11.0059 16.8438 11.0059ZM16.4524 13.3867C16.3997 13.3865 16.3474 13.3967 16.2986 13.4167C16.2498 13.4367 16.2054 13.4661 16.1679 13.5033C16.1305 13.5404 16.1007 13.5846 16.0804 13.6332C16.06 13.6819 16.0494 13.7341 16.0492 13.7868V17.6918C16.049 17.7449 16.0593 17.7974 16.0795 17.8464C16.0997 17.8954 16.1294 17.9399 16.1668 17.9774C16.2043 18.0149 16.2489 18.0446 16.2979 18.0648C16.3469 18.085 16.3994 18.0953 16.4524 18.095H19.1917C19.2982 18.0946 19.4002 18.0519 19.4753 17.9763C19.5503 17.9007 19.5922 17.7984 19.5918 17.6918C19.5914 17.5859 19.5491 17.4844 19.4742 17.4094C19.3992 17.3345 19.2977 17.2922 19.1917 17.2918H16.8525V13.7868C16.8521 13.6808 16.8098 13.5793 16.7348 13.5044C16.6599 13.4294 16.5584 13.3872 16.4524 13.3867Z" fill="black"/>
</svg>
