<svg width="32" height="32" viewBox="0 0 32 32" fill="none" xmlns="http://www.w3.org/2000/svg">
<path d="M27.8668 9.57361C27.8618 8.88139 27.2944 8.32243 26.6022 8.32751L19.8994 8.37663L19.8866 6.6271C19.8795 5.66575 19.0916 4.8894 18.1302 4.89644L13.7146 4.9288C12.7532 4.93585 11.9768 5.72367 11.9838 6.68502L11.9966 8.43455L5.29379 8.48367C4.60157 8.48874 4.0425 9.05595 4.04756 9.7471L4.07946 15.8428C4.08048 16.0305 4.18879 16.201 4.35827 16.2816C4.63584 16.4138 4.92155 16.536 5.20867 16.6565L5.26958 24.9676C5.27466 25.6597 5.84187 26.2185 6.53409 26.2134L25.6218 26.0735C26.314 26.0685 26.8731 25.5014 26.868 24.8093L26.8062 16.3739C27.0981 16.2368 27.3855 16.0947 27.6654 15.9444C27.8255 15.8585 27.9248 15.6908 27.9231 15.5091L27.8668 9.57361ZM12.9615 6.67786C12.9584 6.2556 13.2995 5.9096 13.7218 5.9065L18.1374 5.87414C18.5525 5.8711 18.9058 6.21918 18.9089 6.63427L18.9217 8.38379L12.9743 8.42738L12.9615 6.67786ZM25.8903 24.8164C25.8914 24.9642 25.7626 25.0947 25.6146 25.0958L6.52692 25.2357C6.37642 25.2368 6.24839 25.1108 6.24728 24.9604L6.18922 17.0369C8.45058 17.8532 10.9765 18.3338 13.731 18.4642L13.7364 19.203C13.7401 19.7069 14.1529 20.1137 14.6568 20.11L17.4106 20.0898C17.9145 20.0861 18.3214 19.6733 18.3177 19.1694L18.3122 18.4223C21.1001 18.2347 23.6194 17.69 25.8316 16.7983L25.8903 24.8164ZM14.7136 19.1318L14.7007 17.3706L17.3266 17.3514L17.3395 19.1126L14.7136 19.1318ZM18.305 17.4394L18.3038 17.2804C18.3001 16.7765 17.8873 16.3695 17.3834 16.3732L14.6296 16.3934C14.1257 16.3971 13.7188 16.81 13.7225 17.3139L13.7238 17.4844C10.4748 17.325 7.55971 16.6695 5.05551 15.5279L5.02527 9.74101C5.02417 9.59051 5.15046 9.46247 5.30096 9.46137L26.6094 9.30521C26.7599 9.3041 26.888 9.43028 26.8891 9.58185L26.9426 15.2198C24.516 16.4676 21.6107 17.2102 18.305 17.4394Z" fill="black"/>
</svg>
