<svg width="32" height="32" viewBox="0 0 32 32" fill="none" xmlns="http://www.w3.org/2000/svg">
<rect width="32" height="32" fill="white"/>
<path d="M15.5735 25.9637C15.433 25.9626 15.3015 25.8946 15.2199 25.7801C14.9638 25.4266 9 17.0547 9 13.5736C9 11.2256 10.2533 9.0545 12.2873 7.88049C14.3203 6.7065 16.8267 6.7065 18.8597 7.88049C20.8938 9.05447 22.1471 11.2256 22.1471 13.5736C22.1471 17.0547 16.183 25.4378 15.9272 25.7926C15.8433 25.9014 15.7117 25.9649 15.5735 25.9637ZM15.5735 7.85548C14.0595 7.85775 12.6078 8.46172 11.5383 9.53373C10.4685 10.6057 9.86909 12.0596 9.87022 13.5736C9.87022 16.3261 14.277 22.9065 15.5735 24.7796C16.8698 22.894 21.2767 16.3147 21.2767 13.5736C21.2778 12.0596 20.6784 10.6059 19.6087 9.53373C18.539 8.46175 17.0874 7.85777 15.5735 7.85548Z" fill="black"/>
<path d="M15.5734 16.2308C14.2567 16.2308 13.0702 15.4364 12.5672 14.2194C12.0652 13.0035 12.3462 11.6029 13.2788 10.6736C14.2126 9.74553 15.6132 9.47017 16.8278 9.97896C18.0426 10.4866 18.8313 11.6765 18.8256 12.9933C18.8154 14.7826 17.3627 16.2296 15.5734 16.2308ZM15.5734 10.5966C14.6114 10.5966 13.7445 11.1757 13.3739 12.0641C13.0045 12.9525 13.2062 13.9757 13.8839 14.6579C14.5626 15.3401 15.5848 15.5475 16.4743 15.1837C17.365 14.8188 17.9497 13.9553 17.9554 12.9933C17.9577 12.3598 17.7084 11.7502 17.2619 11.3003C16.8154 10.8516 16.2069 10.5977 15.5734 10.5966Z" fill="black"/>
</svg>
