<svg width="32" height="32" viewBox="0 0 32 32" fill="none" xmlns="http://www.w3.org/2000/svg">
<path d="M15.9997 5C9.93454 5 5 9.93462 5 16.0001C5 22.0654 9.93454 27 15.9997 27C22.0649 27 27 22.0654 27 16.0004C27 9.93462 22.0652 5 15.9997 5ZM15.9997 26.1833C10.3846 26.1833 5.81675 21.6151 5.81675 16.0001C5.81675 10.3849 10.3848 5.81672 15.9997 5.81672C21.6149 5.81672 26.183 10.3849 26.183 16.0001C26.1832 21.6151 21.6149 26.1833 15.9997 26.1833Z" fill="black"/>
<path d="M12.594 21.9674L15.9989 20.5575L19.4063 21.9674C19.5628 22.0324 19.7432 21.9984 19.8662 21.8813C19.9892 21.7638 20.0319 21.5847 19.9754 21.4241L16.404 11.2879C16.4026 11.2833 16.3991 11.2807 16.3977 11.2761C16.3834 11.239 16.365 11.2033 16.3409 11.1713C16.338 11.1676 16.3346 11.165 16.3317 11.1612C16.3097 11.1339 16.2839 11.1097 16.2552 11.0881C16.2486 11.0829 16.2426 11.0777 16.2354 11.0731C16.2064 11.0541 16.1758 11.0371 16.1419 11.0248C16.1396 11.0242 16.1373 11.0245 16.1353 11.0236C16.0918 11.0089 16.0459 11 15.9986 11C15.9513 11 15.9057 11.0089 15.8618 11.0236C15.8595 11.0245 15.8572 11.0242 15.8549 11.0248C15.8208 11.0371 15.7901 11.0541 15.7612 11.0731C15.7546 11.078 15.7483 11.0829 15.7417 11.0881C15.713 11.1097 15.6875 11.1339 15.6651 11.1612C15.662 11.165 15.6588 11.1676 15.6559 11.1713C15.6318 11.2035 15.6138 11.239 15.5992 11.2767C15.5977 11.2807 15.5943 11.2839 15.5931 11.2879L12.0246 21.4244C11.9681 21.585 12.0108 21.7641 12.1338 21.8813C12.2568 21.9984 12.4372 22.0321 12.594 21.9674ZM15.9986 12.7271L18.8432 20.8005L16.1646 19.6924C16.164 19.6921 16.1634 19.6918 16.1626 19.6915H16.1623C16.1614 19.6912 16.1603 19.6909 16.1591 19.6906C16.1339 19.6805 16.1078 19.6728 16.0811 19.6673C16.07 19.665 16.0591 19.665 16.0479 19.6638C16.0313 19.6618 16.0149 19.6592 15.998 19.6592C15.9825 19.6592 15.9676 19.6618 15.9524 19.6633C15.9401 19.6647 15.9275 19.6647 15.9151 19.6673C15.8885 19.6725 15.8621 19.6805 15.8371 19.6906C15.8363 19.6909 15.8354 19.6912 15.8346 19.6915C15.8337 19.6918 15.8328 19.6921 15.832 19.6924L13.1566 20.8002L15.9986 12.7271Z" fill="black"/>
</svg>
