<svg width="26" height="30" viewBox="0 0 26 30" fill="none" xmlns="http://www.w3.org/2000/svg">
<path d="M5.10784 12.7499C4.82927 12.7499 4.64355 12.9507 4.64355 13.2518V14.1051C4.64355 14.4062 4.82927 14.607 5.10784 14.607C5.38641 14.607 5.57213 14.4062 5.57213 14.1051V13.2518C5.57213 13.0008 5.33998 12.7499 5.10784 12.7499Z" fill="black"/>
<path d="M6.96526 12.7499C6.68669 12.7499 6.50098 12.9507 6.50098 13.2518V14.1051C6.50098 14.4062 6.68669 14.607 6.96526 14.607C7.24383 14.607 7.42955 14.4062 7.42955 14.1051V13.2518C7.42955 13.0008 7.24383 12.7499 6.96526 12.7499Z" fill="black"/>
<path d="M8.82171 12.7499C8.54314 12.7499 8.35742 12.9507 8.35742 13.2518V14.1051C8.35742 14.4062 8.54314 14.607 8.82171 14.607C9.10028 14.607 9.28599 14.4062 9.28599 14.1051V13.2518C9.28599 13.0008 9.10028 12.7499 8.82171 12.7499Z" fill="black"/>
<path d="M5.10784 9.96423C4.82927 9.96423 4.64355 10.165 4.64355 10.4662V11.3194C4.64355 11.6206 4.82927 11.8214 5.10784 11.8214C5.38641 11.8214 5.57213 11.6206 5.57213 11.3194V10.4662C5.57213 10.2152 5.33998 9.96423 5.10784 9.96423Z" fill="black"/>
<path d="M6.96526 9.96423C6.68669 9.96423 6.50098 10.165 6.50098 10.4662V11.3194C6.50098 11.6206 6.68669 11.8214 6.96526 11.8214C7.24383 11.8214 7.42955 11.6206 7.42955 11.3194V10.4662C7.42955 10.2152 7.24383 9.96423 6.96526 9.96423Z" fill="black"/>
<path d="M8.82171 9.96423C8.54314 9.96423 8.35742 10.165 8.35742 10.4662V11.3194C8.35742 11.6206 8.54314 11.8214 8.82171 11.8214C9.10028 11.8214 9.28599 11.6206 9.28599 11.3194V10.4662C9.28599 10.2152 9.10028 9.96423 8.82171 9.96423Z" fill="black"/>
<path d="M5.10784 15.5358C4.82927 15.5358 4.64355 15.7365 4.64355 16.0377V16.891C4.64355 17.1921 4.82927 17.3929 5.10784 17.3929C5.38641 17.3929 5.57213 17.1921 5.57213 16.891V16.0377C5.57213 15.7365 5.33998 15.5358 5.10784 15.5358Z" fill="black"/>
<path d="M6.96526 15.5358C6.68669 15.5358 6.50098 15.7365 6.50098 16.0377V16.891C6.50098 17.1921 6.68669 17.3929 6.96526 17.3929C7.24383 17.3929 7.42955 17.1921 7.42955 16.891V16.0377C7.42955 15.7365 7.24383 15.5358 6.96526 15.5358Z" fill="black"/>
<path d="M8.82171 15.5358C8.54314 15.5358 8.35742 15.7365 8.35742 16.0377V16.891C8.35742 17.1921 8.54314 17.3929 8.82171 17.3929C9.10028 17.3929 9.28599 17.1921 9.28599 16.891V16.0377C9.28599 15.7365 9.10028 15.5358 8.82171 15.5358Z" fill="black"/>
<path d="M5.10784 18.3214C4.82927 18.3214 4.64355 18.5222 4.64355 18.8233V19.6766C4.64355 19.9778 4.82927 20.1786 5.10784 20.1786C5.38641 20.1786 5.57213 19.9778 5.57213 19.6766V18.8233C5.57213 18.5724 5.33998 18.3214 5.10784 18.3214Z" fill="black"/>
<path d="M6.96526 18.3214C6.68669 18.3214 6.50098 18.5222 6.50098 18.8233V19.6766C6.50098 19.9778 6.68669 20.1786 6.96526 20.1786C7.24383 20.1786 7.42955 19.9778 7.42955 19.6766V18.8233C7.42955 18.5724 7.24383 18.3214 6.96526 18.3214Z" fill="black"/>
<path d="M8.82171 18.3214C8.54314 18.3214 8.35742 18.5222 8.35742 18.8233V19.6766C8.35742 19.9778 8.54314 20.1786 8.82171 20.1786C9.10028 20.1786 9.28599 19.9778 9.28599 19.6766V18.8233C9.28599 18.5724 9.10028 18.3214 8.82171 18.3214Z" fill="black"/>
<path d="M5.10784 22.0358C4.82927 22.0358 4.64355 22.1362 4.64355 22.2867V22.7134C4.64355 22.864 4.82927 22.9643 5.10784 22.9643C5.38641 22.9643 5.57213 22.864 5.57213 22.7134V22.2867C5.57213 22.1362 5.33998 22.0358 5.10784 22.0358Z" fill="black"/>
<path d="M6.96526 22.0358C6.68669 22.0358 6.50098 22.1362 6.50098 22.2867V22.7134C6.50098 22.864 6.68669 22.9643 6.96526 22.9643C7.24383 22.9643 7.42955 22.864 7.42955 22.7134V22.2867C7.42955 22.1362 7.24383 22.0358 6.96526 22.0358Z" fill="black"/>
<path d="M8.82171 22.0358C8.54314 22.0358 8.35742 22.1362 8.35742 22.2867V22.7134C8.35742 22.864 8.54314 22.9643 8.82171 22.9643C9.10028 22.9643 9.28599 22.864 9.28599 22.7134V22.2867C9.28599 22.1362 9.10028 22.0358 8.82171 22.0358Z" fill="black"/>
<path d="M5.10784 24.8215C4.82927 24.8215 4.64355 24.9219 4.64355 25.0725V25.4991C4.64355 25.6497 4.82927 25.7501 5.10784 25.7501C5.38641 25.7501 5.57213 25.6497 5.57213 25.4991V25.0725C5.57213 24.947 5.33998 24.8215 5.10784 24.8215Z" fill="black"/>
<path d="M6.96526 24.8215C6.68669 24.8215 6.50098 24.9219 6.50098 25.0725V25.4991C6.50098 25.6497 6.68669 25.7501 6.96526 25.7501C7.24383 25.7501 7.42955 25.6497 7.42955 25.4991V25.0725C7.42955 24.947 7.24383 24.8215 6.96526 24.8215Z" fill="black"/>
<path d="M8.82171 24.8215C8.54314 24.8215 8.35742 24.9219 8.35742 25.0725V25.4991C8.35742 25.6497 8.54314 25.7501 8.82171 25.7501C9.10028 25.7501 9.28599 25.6497 9.28599 25.4991V25.0725C9.28599 24.947 9.10028 24.8215 8.82171 24.8215Z" fill="black"/>
<path d="M17.1772 12.7499C16.8986 12.7499 16.7129 12.9507 16.7129 13.2518V14.1051C16.7129 14.4062 16.8986 14.607 17.1772 14.607C17.4557 14.607 17.6415 14.4062 17.6415 14.1051V13.2518C17.6415 13.0008 17.4557 12.7499 17.1772 12.7499Z" fill="black"/>
<path d="M19.0346 12.7499C18.756 12.7499 18.5703 12.9507 18.5703 13.2518V14.1051C18.5703 14.4062 18.756 14.607 19.0346 14.607C19.3132 14.607 19.4989 14.4062 19.4989 14.1051V13.2518C19.4989 13.0008 19.2667 12.7499 19.0346 12.7499Z" fill="black"/>
<path d="M20.892 12.7499C20.6134 12.7499 20.4277 12.9507 20.4277 13.2518V14.1051C20.4277 14.4062 20.6134 14.607 20.892 14.607C21.1706 14.607 21.3563 14.4062 21.3563 14.1051V13.2518C21.3563 13.0008 21.1706 12.7499 20.892 12.7499Z" fill="black"/>
<path d="M17.1772 15.5358C16.8986 15.5358 16.7129 15.7365 16.7129 16.0377V16.891C16.7129 17.1921 16.8986 17.3929 17.1772 17.3929C17.4557 17.3929 17.6415 17.1921 17.6415 16.891V16.0377C17.6415 15.7365 17.4557 15.5358 17.1772 15.5358Z" fill="black"/>
<path d="M19.0346 15.5358C18.756 15.5358 18.5703 15.7365 18.5703 16.0377V16.891C18.5703 17.1921 18.756 17.3929 19.0346 17.3929C19.3132 17.3929 19.4989 17.1921 19.4989 16.891V16.0377C19.4989 15.7365 19.2667 15.5358 19.0346 15.5358Z" fill="black"/>
<path d="M20.892 15.5358C20.6134 15.5358 20.4277 15.7365 20.4277 16.0377V16.891C20.4277 17.1921 20.6134 17.3929 20.892 17.3929C21.1706 17.3929 21.3563 17.1921 21.3563 16.891V16.0377C21.3563 15.7365 21.1706 15.5358 20.892 15.5358Z" fill="black"/>
<path d="M17.1772 18.3214C16.8986 18.3214 16.7129 18.5222 16.7129 18.8233V19.6766C16.7129 19.9778 16.8986 20.1786 17.1772 20.1786C17.4557 20.1786 17.6415 19.9778 17.6415 19.6766V18.8233C17.6415 18.5724 17.4557 18.3214 17.1772 18.3214Z" fill="black"/>
<path d="M19.0346 18.3214C18.756 18.3214 18.5703 18.5222 18.5703 18.8233V19.6766C18.5703 19.9778 18.756 20.1786 19.0346 20.1786C19.3132 20.1786 19.4989 19.9778 19.4989 19.6766V18.8233C19.4989 18.5724 19.2667 18.3214 19.0346 18.3214Z" fill="black"/>
<path d="M20.892 18.3214C20.6134 18.3214 20.4277 18.5222 20.4277 18.8233V19.6766C20.4277 19.9778 20.6134 20.1786 20.892 20.1786C21.1706 20.1786 21.3563 19.9778 21.3563 19.6766V18.8233C21.3563 18.5724 21.1706 18.3214 20.892 18.3214Z" fill="black"/>
<path d="M17.1772 22.0358C16.8986 22.0358 16.7129 22.1362 16.7129 22.2867V22.7134C16.7129 22.864 16.8986 22.9643 17.1772 22.9643C17.4557 22.9643 17.6415 22.864 17.6415 22.7134V22.2867C17.6415 22.1362 17.4557 22.0358 17.1772 22.0358Z" fill="black"/>
<path d="M19.0346 22.0358C18.756 22.0358 18.5703 22.1362 18.5703 22.2867V22.7134C18.5703 22.864 18.756 22.9643 19.0346 22.9643C19.3132 22.9643 19.4989 22.864 19.4989 22.7134V22.2867C19.4989 22.1362 19.2667 22.0358 19.0346 22.0358Z" fill="black"/>
<path d="M20.892 22.0358C20.6134 22.0358 20.4277 22.1362 20.4277 22.2867V22.7134C20.4277 22.864 20.6134 22.9643 20.892 22.9643C21.1706 22.9643 21.3563 22.864 21.3563 22.7134V22.2867C21.3563 22.1362 21.1706 22.0358 20.892 22.0358Z" fill="black"/>
<path d="M17.1772 24.8215C16.8986 24.8215 16.7129 24.9219 16.7129 25.0725V25.4991C16.7129 25.6497 16.8986 25.7501 17.1772 25.7501C17.4557 25.7501 17.6415 25.6497 17.6415 25.4991V25.0725C17.6415 24.947 17.4557 24.8215 17.1772 24.8215Z" fill="black"/>
<path d="M19.0346 24.8215C18.756 24.8215 18.5703 24.9219 18.5703 25.0725V25.4991C18.5703 25.6497 18.756 25.7501 19.0346 25.7501C19.3132 25.7501 19.4989 25.6497 19.4989 25.4991V25.0725C19.4989 24.947 19.2667 24.8215 19.0346 24.8215Z" fill="black"/>
<path d="M20.892 24.8215C20.6134 24.8215 20.4277 24.9219 20.4277 25.0725V25.4991C20.4277 25.6497 20.6134 25.7501 20.892 25.7501C21.1706 25.7501 21.3563 25.6497 21.3563 25.4991V25.0725C21.3563 24.947 21.1706 24.8215 20.892 24.8215Z" fill="black"/>
<path d="M25.5866 28.6118H23.9332V11.9677C23.9332 11.8054 23.8506 11.6836 23.6852 11.6024L14.8808 7.66464C14.7568 7.62404 14.5914 7.62404 14.4674 7.70523C14.3434 7.78642 14.2607 7.90821 14.2607 8.03V28.6118H12.0286V1.0882C12.0286 0.925821 11.9459 0.804035 11.7806 0.722845C11.6566 0.641654 11.4499 0.682249 11.3259 0.76344L2.60413 7.74583C2.52146 7.82702 2.43879 7.9488 2.43879 8.07059V28.6524H0.413355C0.165342 28.6524 0 28.8148 0 29.0584C0 29.3019 0.165342 29.4643 0.413355 29.4643H25.5866C25.8347 29.4643 26 29.3019 26 29.0584C26 28.8148 25.7933 28.6118 25.5866 28.6118ZM15.1288 8.67952L23.1065 12.2113V28.6118H15.1288V8.67952ZM3.2655 8.23297L11.2432 1.9407V28.6118H3.2655V8.23297Z" fill="black"/>
</svg>
