<svg width="32" height="32" viewBox="0 0 32 32" fill="none" xmlns="http://www.w3.org/2000/svg">
<path d="M8.58049 12.6451H21.1612C21.2724 12.6451 21.3791 12.6009 21.4577 12.5223C21.5364 12.4436 21.5805 12.337 21.5805 12.2258C21.5805 12.1145 21.5364 12.0079 21.4577 11.9292C21.3791 11.8506 21.2724 11.8064 21.1612 11.8064H8.58049C8.46927 11.8064 8.3626 11.8506 8.28396 11.9292C8.20531 12.0079 8.16113 12.1145 8.16113 12.2258C8.16113 12.337 8.20531 12.4436 8.28396 12.5223C8.3626 12.6009 8.46927 12.6451 8.58049 12.6451Z" fill="black"/>
<path d="M8.58049 14.7419H21.1612C21.2724 14.7419 21.3791 14.6977 21.4577 14.6191C21.5364 14.5404 21.5805 14.4338 21.5805 14.3226C21.5805 14.2113 21.5364 14.1047 21.4577 14.026C21.3791 13.9474 21.2724 13.9032 21.1612 13.9032H8.58049C8.46927 13.9032 8.3626 13.9474 8.28396 14.026C8.20531 14.1047 8.16113 14.2113 8.16113 14.3226C8.16113 14.4338 8.20531 14.5404 8.28396 14.6191C8.3626 14.6977 8.46927 14.7419 8.58049 14.7419Z" fill="black"/>
<path d="M8.58049 16.8387H18.645C18.7563 16.8387 18.8629 16.7945 18.9416 16.7159C19.0202 16.6372 19.0644 16.5306 19.0644 16.4194C19.0644 16.3081 19.0202 16.2015 18.9416 16.1228C18.8629 16.0442 18.7563 16 18.645 16H8.58049C8.46927 16 8.3626 16.0442 8.28396 16.1228C8.20531 16.2015 8.16113 16.3081 8.16113 16.4194C8.16113 16.5306 8.20531 16.6372 8.28396 16.7159C8.3626 16.7945 8.46927 16.8387 8.58049 16.8387Z" fill="black"/>
<path d="M16.9676 18.0967H8.58049C8.46927 18.0967 8.3626 18.1409 8.28396 18.2195C8.20531 18.2982 8.16113 18.4048 8.16113 18.516C8.16113 18.6273 8.20531 18.7339 8.28396 18.8126C8.3626 18.8912 8.46927 18.9354 8.58049 18.9354H16.9676C17.0788 18.9354 17.1855 18.8912 17.2641 18.8126C17.3428 18.7339 17.387 18.6273 17.387 18.516C17.387 18.4048 17.3428 18.2982 17.2641 18.2195C17.1855 18.1409 17.0788 18.0967 16.9676 18.0967Z" fill="black"/>
<path d="M28.2912 21.4516C28.2903 20.3366 27.9192 19.2534 27.2361 18.3722C26.553 17.491 25.5965 16.8616 24.517 16.5828V8.95474C24.5165 8.84473 24.4728 8.7393 24.3953 8.66119L18.9437 3.12568C18.9049 3.08606 18.8586 3.05454 18.8074 3.03294C18.7563 3.01135 18.7015 3.00011 18.646 2.99988H5.64592C5.5347 2.99988 5.42803 3.04406 5.34939 3.1227C5.27074 3.20135 5.22656 3.30801 5.22656 3.41923V28.5806C5.22656 28.6918 5.27074 28.7985 5.34939 28.8771C5.42803 28.9558 5.5347 29 5.64592 29H24.0976C24.2088 29 24.3155 28.9558 24.3941 28.8771C24.4728 28.7985 24.517 28.6918 24.517 28.5806V26.3203C25.5965 26.0415 26.553 25.4121 27.2361 24.5309C27.9192 23.6497 28.2903 22.5666 28.2912 21.4516ZM19.0653 4.44246L23.0115 8.45151H19.0653V4.44246ZM23.6782 28.1613H6.06528V3.83859H18.2266V8.87087C18.2266 8.98209 18.2708 9.08875 18.3494 9.1674C18.4281 9.24604 18.5347 9.29022 18.646 9.29022H23.6782V16.4193C23.5399 16.4193 23.4015 16.4193 23.2589 16.4193C21.9242 16.4193 20.6443 16.9495 19.7005 17.8932C18.7568 18.8369 18.2266 20.1169 18.2266 21.4516C18.2266 22.7862 18.7568 24.0662 19.7005 25.0099C20.6443 25.9537 21.9242 26.4838 23.2589 26.4838C23.4015 26.4838 23.5399 26.4838 23.6782 26.4838V28.1613ZM23.2589 25.6451C22.4295 25.6451 21.6187 25.3992 20.9291 24.9384C20.2394 24.4776 19.7019 23.8226 19.3845 23.0564C19.0671 22.2901 18.9841 21.4469 19.1459 20.6334C19.3077 19.82 19.7071 19.0727 20.2936 18.4863C20.8801 17.8998 21.6273 17.5004 22.4408 17.3386C23.2542 17.1768 24.0974 17.2598 24.8637 17.5772C25.63 17.8946 26.2849 18.4321 26.7457 19.1217C27.2065 19.8114 27.4525 20.6222 27.4525 21.4516C27.4525 22.5638 27.0106 23.6304 26.2242 24.4169C25.4377 25.2033 24.3711 25.6451 23.2589 25.6451Z" fill="black"/>
<path d="M24.5173 21.0322H23.6786V18.516C23.6786 18.4048 23.6344 18.2982 23.5557 18.2195C23.4771 18.1409 23.3704 18.0967 23.2592 18.0967C23.148 18.0967 23.0413 18.1409 22.9627 18.2195C22.884 18.2982 22.8398 18.4048 22.8398 18.516V21.4515C22.8398 21.5628 22.884 21.6694 22.9627 21.7481C23.0413 21.8267 23.148 21.8709 23.2592 21.8709H24.5173C24.6285 21.8709 24.7352 21.8267 24.8138 21.7481C24.8924 21.6694 24.9366 21.5628 24.9366 21.4515C24.9366 21.3403 24.8924 21.2336 24.8138 21.155C24.7352 21.0764 24.6285 21.0322 24.5173 21.0322Z" fill="black"/>
<path d="M16.1304 25.2257H9.00139C8.89017 25.2257 8.7835 25.2699 8.70486 25.3485C8.62621 25.4272 8.58203 25.5338 8.58203 25.6451C8.58203 25.7563 8.62621 25.8629 8.70486 25.9416C8.7835 26.0202 8.89017 26.0644 9.00139 26.0644H16.1304C16.2417 26.0644 16.3483 26.0202 16.427 25.9416C16.5056 25.8629 16.5498 25.7563 16.5498 25.6451C16.5498 25.5338 16.5056 25.4272 16.427 25.3485C16.3483 25.2699 16.2417 25.2257 16.1304 25.2257Z" fill="black"/>
</svg>
